<?xml version="1.0" standalone="no"?>
<!DOCTYPE svg PUBLIC "-//W3C//DTD SVG 20010904//EN"
 "http://www.w3.org/TR/2001/REC-SVG-20010904/DTD/svg10.dtd">
<svg version="1.0" xmlns="http://www.w3.org/2000/svg"
 width="21.000000pt" height="21.000000pt" viewBox="0 0 300.000000 300.000000"
 preserveAspectRatio="xMidYMid meet">
<metadata>
Created by potrace 1.16, written by Peter Selinger 2001-2019
</metadata>
<g transform="translate(0.000000,300.000000) scale(0.100000,-0.100000)"
fill="#000000" stroke="none">
<path d="M1235 2986 c-555 -105 -989 -483 -1164 -1013 -55 -164 -71 -274 -71
-473 0 -200 16 -309 71 -475 75 -225 193 -417 359 -585 201 -203 421 -329 700
-403 108 -28 129 -31 335 -34 196 -4 232 -2 325 17 602 123 1043 560 1186
1175 16 66 19 121 19 310 0 217 -2 236 -27 337 -47 185 -108 328 -205 478
-208 321 -518 544 -891 642 -111 29 -128 31 -342 34 -157 2 -246 -1 -295 -10z
m66 -752 c118 -70 226 -138 242 -152 36 -34 48 -84 45 -184 l-3 -83 -95 -57
c-52 -32 -98 -57 -102 -58 -3 0 -8 52 -10 115 -4 137 3 128 -173 235 -159 97
-160 97 -333 -5 -91 -53 -137 -86 -147 -106 -21 -40 -21 -338 0 -378 22 -44
268 -191 318 -191 31 0 75 22 230 113 345 204 591 346 622 357 16 6 41 8 55 5
38 -9 440 -245 480 -282 l35 -31 3 -289 c3 -287 3 -289 -20 -322 -17 -25 -84
-70 -253 -168 -219 -128 -232 -134 -275 -130 -35 3 -92 32 -255 127 -115 67
-225 137 -243 156 l-33 34 3 112 3 112 90 53 c50 29 93 53 98 53 4 0 7 -44 7
-97 0 -78 4 -104 19 -129 26 -42 273 -184 321 -184 46 0 285 141 312 184 17
28 18 48 16 202 -3 152 -5 174 -22 193 -35 39 -259 163 -303 168 -39 5 -61 -6
-445 -231 -339 -197 -411 -236 -443 -236 -32 0 -82 25 -271 135 -142 83 -239
146 -250 163 -17 25 -19 51 -19 309 0 270 1 283 21 310 12 15 99 75 195 132
239 142 295 171 333 171 24 0 91 -35 247 -126z"/>
</g>
</svg>
